<svg height="406pt" viewBox="0 -38 406 406" width="406pt" xmlns="http://www.w3.org/2000/svg"><path d="m203.730469 237.507812h95.269531c14.90625-.019531 26.984375-12.097656 27-27v-183.507812c-.015625-14.90625-12.09375-26.984375-27-27h-272c-14.90625.015625-26.984375 12.09375-27 27v183.507812c.015625 14.902344 12.09375 26.980469 27 27h92.898438c2.453124 0 4.726562 1.28125 5.992187 3.378907l35.925781 59.460937 35.929688-59.460937c1.265625-2.097657 3.535156-3.378907 5.984375-3.378907zm-56.605469-71.46875c-2.75 2.628907-7.097656 2.578126-9.785156-.113281l-54.289063-54.289062c-2.734375-2.734375-2.734375-7.164063 0-9.898438s7.164063-2.734375 9.898438 0l49.449219 49.453125 90.765624-86.695312c2.792969-2.667969 7.226563-2.566406 9.894532.226562 2.671875 2.796875 2.570312 7.226563-.226563 9.898438zm0 0"/><path d="m383 66.617188h-43v143.890624c-.023438 22.632813-18.367188 40.972657-41 41h-91.320312l-13.914063 23.027344h31.199219c2.453125 0 4.722656 1.285156 5.992187 3.382813l31 51.300781 31-51.300781c1.265625-2.097657 3.539063-3.382813 5.988281-3.382813h84.054688c12.695312-.011718 22.984375-10.300781 23-23v-161.917968c-.015625-12.695313-10.304688-22.984376-23-23zm0 0"/></svg>