<svg height="312pt" viewBox="0 0 312 312" width="312pt" xmlns="http://www.w3.org/2000/svg"><path d="m192.941406 184.867188c-8.832031.003906-15.988281 7.160156-15.988281 15.992187s7.160156 15.988281 15.988281 15.988281c8.832032 0 15.992188-7.15625 15.992188-15.988281-.011719-8.828125-7.164063-15.980469-15.992188-15.992187zm0 0"/><path d="m133.289062 112.898438c0-8.828126-7.160156-15.988282-15.992187-15.988282-8.828125 0-15.988281 7.160156-15.988281 15.988282 0 8.832031 7.160156 15.992187 15.988281 15.992187 8.828125-.011719 15.980469-7.164063 15.992187-15.992187zm0 0"/><path d="m156 0c-86.019531 0-156 69.980469-156 156s69.980469 156 156 156 156-69.980469 156-156-69.980469-156-156-156zm-66.691406 112.898438c0-15.457032 12.53125-27.988282 27.988281-27.988282 15.460937 0 27.992187 12.53125 27.992187 27.988282 0 15.460937-12.53125 27.992187-27.988281 27.992187-15.453125-.015625-27.976562-12.539063-27.992187-27.992187zm22.242187 122.242187c-1.164062 1.816406-3.210937 2.867187-5.363281 2.757813-2.152344-.113282-4.078125-1.371094-5.050781-3.292969-.96875-1.925781-.832031-4.222657.359375-6.019531l98.953125-151.726563c1.164062-1.816406 3.210937-2.867187 5.363281-2.757813 2.152344.113282 4.078125 1.371094 5.050781 3.292969.96875 1.925781.832031 4.222657-.359375 6.019531zm81.390625-6.292969c-15.457031 0-27.988281-12.53125-27.988281-27.988281 0-15.460937 12.53125-27.992187 27.988281-27.992187 15.460938.003906 27.992188 12.535156 27.992188 27.992187-.019532 15.449219-12.539063 27.972656-27.992188 27.988281zm0 0"/></svg>