<svg height="422pt" viewBox="0 -25 422 421" width="422pt" xmlns="http://www.w3.org/2000/svg"><path d="m294.101562 226.5h-166.203124c-6.597657 0-11.898438 5.898438-11.898438 12.5v131.5h190v-131.5c0-6.601562-5.300781-12.5-11.898438-12.5zm-20 114h-126.203124c-4.417969 0-8-3.582031-8-8s3.582031-8 8-8h126.203124c4.417969 0 8 3.582031 8 8s-3.582031 8-8 8zm0-32h-126.203124c-4.417969 0-8-3.582031-8-8s3.582031-8 8-8h126.203124c4.417969 0 8 3.582031 8 8s-3.582031 8-8 8zm0-32h-126.203124c-4.417969 0-8-3.582031-8-8s3.582031-8 8-8h126.203124c4.417969 0 8 3.582031 8 8s-3.582031 8-8 8zm0 0"/><path d="m110 50.5h-41.800781c-6.734375.191406-12.117188 5.664062-12.199219 12.398438v17.601562h54zm0 0"/><path d="m296 12.898438c-.082031-6.734376-5.464844-12.207032-12.199219-12.398438h-145.601562c-6.734375.191406-12.117188 5.664062-12.199219 12.398438v67.601562h170zm0 0"/><path d="m366 62.898438c-.082031-6.734376-5.464844-12.207032-12.199219-12.398438h-41.800781v30h54zm0 0"/><path d="m390 96.5h-358c-8.4375-.066406-16.554688 3.230469-22.558594 9.160156-6.003906 5.925782-9.4023435 14.003906-9.441406 22.441406v130.097657c0 17.601562 14.398438 32.300781 32 32.300781h68v-51.5c0-15.398438 12.5-28.5 27.898438-28.5h166.203124c15.398438 0 27.898438 13 27.898438 28.5v51.5h68c17.722656-.15625 32.007812-14.574219 32-32.300781v-130.097657c-.039062-8.4375-3.4375-16.515624-9.441406-22.441406-6.003906-5.929687-14.121094-9.226562-22.558594-9.160156zm-271 64h-72c-4.417969 0-8-3.582031-8-8s3.582031-8 8-8h72c4.417969 0 8 3.582031 8 8s-3.582031 8-8 8zm0 0"/></svg>