<svg xmlns="http://www.w3.org/2000/svg" style="display: none;"><symbol id="chat" viewBox="0 -38 406 406"><title>chat</title><path d="m203.730469 237.507812h95.269531c14.90625-.019531 26.984375-12.097656 27-27v-183.507812c-.015625-14.90625-12.09375-26.984375-27-27h-272c-14.90625.015625-26.984375 12.09375-27 27v183.507812c.015625 14.902344 12.09375 26.980469 27 27h92.898438c2.453124 0 4.726562 1.28125 5.992187 3.378907l35.925781 59.460937 35.929688-59.460937c1.265625-2.097657 3.535156-3.378907 5.984375-3.378907zm-56.605469-71.46875c-2.75 2.628907-7.097656 2.578126-9.785156-.113281l-54.289063-54.289062c-2.734375-2.734375-2.734375-7.164063 0-9.898438s7.164063-2.734375 9.898438 0l49.449219 49.453125 90.765624-86.695312c2.792969-2.667969 7.226563-2.566406 9.894532.226562 2.671875 2.796875 2.570312 7.226563-.226563 9.898438zm0 0"/><path d="m383 66.617188h-43v143.890624c-.023438 22.632813-18.367188 40.972657-41 41h-91.320312l-13.914063 23.027344h31.199219c2.453125 0 4.722656 1.285156 5.992187 3.382813l31 51.300781 31-51.300781c1.265625-2.097657 3.539063-3.382813 5.988281-3.382813h84.054688c12.695312-.011718 22.984375-10.300781 23-23v-161.917968c-.015625-12.695313-10.304688-22.984376-23-23zm0 0"/></symbol><symbol id="discount" viewBox="0 0 312 312"><title>discount</title><path d="m192.941406 184.867188c-8.832031.003906-15.988281 7.160156-15.988281 15.992187s7.160156 15.988281 15.988281 15.988281c8.832032 0 15.992188-7.15625 15.992188-15.988281-.011719-8.828125-7.164063-15.980469-15.992188-15.992187zm0 0"/><path d="m133.289062 112.898438c0-8.828126-7.160156-15.988282-15.992187-15.988282-8.828125 0-15.988281 7.160156-15.988281 15.988282 0 8.832031 7.160156 15.992187 15.988281 15.992187 8.828125-.011719 15.980469-7.164063 15.992187-15.992187zm0 0"/><path d="m156 0c-86.019531 0-156 69.980469-156 156s69.980469 156 156 156 156-69.980469 156-156-69.980469-156-156-156zm-66.691406 112.898438c0-15.457032 12.53125-27.988282 27.988281-27.988282 15.460937 0 27.992187 12.53125 27.992187 27.988282 0 15.460937-12.53125 27.992187-27.988281 27.992187-15.453125-.015625-27.976562-12.539063-27.992187-27.992187zm22.242187 122.242187c-1.164062 1.816406-3.210937 2.867187-5.363281 2.757813-2.152344-.113282-4.078125-1.371094-5.050781-3.292969-.96875-1.925781-.832031-4.222657.359375-6.019531l98.953125-151.726563c1.164062-1.816406 3.210937-2.867187 5.363281-2.757813 2.152344.113282 4.078125 1.371094 5.050781 3.292969.96875 1.925781.832031 4.222657-.359375 6.019531zm81.390625-6.292969c-15.457031 0-27.988281-12.53125-27.988281-27.988281 0-15.460937 12.53125-27.992187 27.988281-27.992187 15.460938.003906 27.992188 12.535156 27.992188 27.992187-.019532 15.449219-12.539063 27.972656-27.992188 27.988281zm0 0"/></symbol><symbol id="printer" viewBox="0 -25 422 421"><title>printer</title><path d="m294.101562 226.5h-166.203124c-6.597657 0-11.898438 5.898438-11.898438 12.5v131.5h190v-131.5c0-6.601562-5.300781-12.5-11.898438-12.5zm-20 114h-126.203124c-4.417969 0-8-3.582031-8-8s3.582031-8 8-8h126.203124c4.417969 0 8 3.582031 8 8s-3.582031 8-8 8zm0-32h-126.203124c-4.417969 0-8-3.582031-8-8s3.582031-8 8-8h126.203124c4.417969 0 8 3.582031 8 8s-3.582031 8-8 8zm0-32h-126.203124c-4.417969 0-8-3.582031-8-8s3.582031-8 8-8h126.203124c4.417969 0 8 3.582031 8 8s-3.582031 8-8 8zm0 0"/><path d="m110 50.5h-41.800781c-6.734375.191406-12.117188 5.664062-12.199219 12.398438v17.601562h54zm0 0"/><path d="m296 12.898438c-.082031-6.734376-5.464844-12.207032-12.199219-12.398438h-145.601562c-6.734375.191406-12.117188 5.664062-12.199219 12.398438v67.601562h170zm0 0"/><path d="m366 62.898438c-.082031-6.734376-5.464844-12.207032-12.199219-12.398438h-41.800781v30h54zm0 0"/><path d="m390 96.5h-358c-8.4375-.066406-16.554688 3.230469-22.558594 9.160156-6.003906 5.925782-9.4023435 14.003906-9.441406 22.441406v130.097657c0 17.601562 14.398438 32.300781 32 32.300781h68v-51.5c0-15.398438 12.5-28.5 27.898438-28.5h166.203124c15.398438 0 27.898438 13 27.898438 28.5v51.5h68c17.722656-.15625 32.007812-14.574219 32-32.300781v-130.097657c-.039062-8.4375-3.4375-16.515624-9.441406-22.441406-6.003906-5.929687-14.121094-9.226562-22.558594-9.160156zm-271 64h-72c-4.417969 0-8-3.582031-8-8s3.582031-8 8-8h72c4.417969 0 8 3.582031 8 8s-3.582031 8-8 8zm0 0"/></symbol><symbol id="shopping-bag" viewBox="-22 0 406 406.65697"><title>shopping-bag</title><path d="m92.089844 75.234375c0-33.820313 27.414062-61.234375 61.234375-61.234375 33.816406 0 61.234375 27.414062 61.234375 61.234375v38.386719h14v-38.386719c0-41.550781-33.683594-75.234375-75.234375-75.234375s-75.234375 33.683594-75.234375 75.234375v38.386719h14zm0 0"/><path d="m290.929688 255.429688-23.050782-130.144532c-.007812-.042968-.015625-.089844-.023437-.132812-1.015625-6.652344-6.75-11.558594-13.480469-11.53125h-25.816406v38.035156c0 3.867188-3.136719 7-7 7-3.867188 0-7-3.132812-7-7v-38.035156h-122.46875v38.035156c0 3.867188-3.132813 7-7 7-3.867188 0-7-3.132812-7-7v-38.035156h-25.816406c-6.730469-.027344-12.464844 4.878906-13.480469 11.53125-.007813.042968-.015625.089844-.023438.132812l-38.441406 217.011719c.34375 18.695313 15.585937 33.679687 34.285156 33.699219h185.046875c-12.96875-25.289063-12.066406-55.464844 2.398438-79.933594 14.460937-24.464844 40.460937-39.808594 68.871094-40.636719zm0 0"/><path d="m298.765625 269.578125c-1.800781-.136719-3.632813-.210937-5.441406-.210937-37.382813.035156-67.863281 29.972656-68.570313 67.347656-.707031 37.375 28.621094 68.441406 65.972656 69.890625 37.351563 1.449219 68.996094-27.257813 71.1875-64.574219 2.1875-37.316406-25.882812-69.523438-63.148437-72.453125zm39.742187 51.894531-50.359374 48.101563c-2.75 2.625-7.09375 2.578125-9.785157-.113281l-28.566406-28.566407c-2.734375-2.730469-2.734375-7.164062 0-9.898437s7.167969-2.734375 9.902344 0l23.726562 23.730468 45.414063-43.378906c2.796875-2.667968 7.226562-2.566406 9.898437.230469 2.667969 2.792969 2.566407 7.226563-.230469 9.894531zm0 0"/></symbol><symbol id="maps-and-flags" viewBox="0 0 512 512"><title>maps-and-flags</title><path d="M256,0C153.755,0,70.573,83.182,70.573,185.426c0,126.888,165.939,313.167,173.004,321.035 c6.636,7.391,18.222,7.378,24.846,0c7.065-7.868,173.004-194.147,173.004-321.035C441.425,83.182,358.244,0,256,0z M256,278.719 c-51.442,0-93.292-41.851-93.292-93.293S204.559,92.134,256,92.134s93.291,41.851,93.291,93.293S307.441,278.719,256,278.719z"/></symbol><symbol id="phone" viewBox="0 0 512.006 512.006"><title>phone</title><path d="M502.05,407.127l-56.761-37.844L394.83,335.65c-9.738-6.479-22.825-4.355-30.014,4.873l-31.223,40.139 c-6.707,8.71-18.772,11.213-28.39,5.888c-21.186-11.785-46.239-22.881-101.517-78.23c-55.278-55.349-66.445-80.331-78.23-101.517 c-5.325-9.618-2.822-21.683,5.888-28.389l40.139-31.223c9.227-7.188,11.352-20.275,4.873-30.014l-32.6-48.905L104.879,9.956 C98.262,0.03,85.016-2.95,74.786,3.185L29.95,30.083C17.833,37.222,8.926,48.75,5.074,62.277 C-7.187,106.98-9.659,205.593,148.381,363.633s256.644,155.56,301.347,143.298c13.527-3.851,25.055-12.758,32.194-24.876 l26.898-44.835C514.956,426.989,511.976,413.744,502.05,407.127z"/><path d="M291.309,79.447c82.842,0.092,149.977,67.226,150.069,150.069c0,4.875,3.952,8.828,8.828,8.828 c4.875,0,8.828-3.952,8.828-8.828c-0.102-92.589-75.135-167.622-167.724-167.724c-4.875,0-8.828,3.952-8.828,8.828 C282.481,75.494,286.433,79.447,291.309,79.447z"/><path d="M291.309,132.412c53.603,0.063,97.04,43.501,97.103,97.103c0,4.875,3.952,8.828,8.828,8.828 c4.875,0,8.828-3.952,8.828-8.828c-0.073-63.349-51.409-114.686-114.759-114.759c-4.875,0-8.828,3.952-8.828,8.828 C282.481,128.46,286.433,132.412,291.309,132.412z"/><path d="M291.309,185.378c24.365,0.029,44.109,19.773,44.138,44.138c0,4.875,3.952,8.828,8.828,8.828 c4.875,0,8.828-3.952,8.828-8.828c-0.039-34.111-27.682-61.754-61.793-61.793c-4.875,0-8.828,3.952-8.828,8.828 C282.481,181.426,286.433,185.378,291.309,185.378z"/></symbol><symbol id="mail" viewBox="0 0 512 512"><title>mail</title><path d="M10.688,95.156C80.958,154.667,204.26,259.365,240.5,292.01c4.865,4.406,10.083,6.646,15.5,6.646 c5.406,0,10.615-2.219,15.469-6.604c36.271-32.677,159.573-137.385,229.844-196.896c4.375-3.698,5.042-10.198,1.5-14.719 C494.625,69.99,482.417,64,469.333,64H42.667c-13.083,0-25.292,5.99-33.479,16.438C5.646,84.958,6.313,91.458,10.688,95.156z"/><path d="M505.813,127.406c-3.781-1.76-8.229-1.146-11.375,1.542C416.51,195.01,317.052,279.688,285.76,307.885 c-17.563,15.854-41.938,15.854-59.542-0.021c-33.354-30.052-145.042-125-208.656-178.917c-3.167-2.688-7.625-3.281-11.375-1.542 C2.417,129.156,0,132.927,0,137.083v268.25C0,428.865,19.135,448,42.667,448h426.667C492.865,448,512,428.865,512,405.333 v-268.25C512,132.927,509.583,129.146,505.813,127.406z"/></symbol><symbol id="next" viewBox="0 0 443.52 443.52"><title>next</title><path d="M336.226,209.591l-204.8-204.8c-6.78-6.548-17.584-6.36-24.132,0.42c-6.388,6.614-6.388,17.099,0,23.712l192.734,192.734 L107.294,414.391c-6.663,6.664-6.663,17.468,0,24.132c6.665,6.663,17.468,6.663,24.132,0l204.8-204.8 C342.889,227.058,342.889,216.255,336.226,209.591z"/></symbol><symbol id="tick" viewBox="0 0 477.867 477.867"><title>tick</title><path d="M238.933,0C106.974,0,0,106.974,0,238.933s106.974,238.933,238.933,238.933s238.933-106.974,238.933-238.933 C477.726,107.033,370.834,0.141,238.933,0z M370.466,165.666L199.799,336.333c-6.665,6.663-17.468,6.663-24.132,0l-68.267-68.267 c-6.78-6.548-6.968-17.352-0.42-24.132c6.548-6.78,17.352-6.968,24.132-0.42c0.142,0.138,0.282,0.277,0.42,0.42l56.201,56.201 l158.601-158.601c6.78-6.548,17.584-6.36,24.132,0.419C376.854,148.567,376.854,159.052,370.466,165.666z"/></symbol><symbol id="marker" viewBox="0 0 512 512"><title>marker</title><g> <g> <path d="M256,103.278c-39.429,0-71.505,32.077-71.505,71.505c0,39.429,32.077,71.505,71.505,71.505 c39.428,0,71.505-32.077,71.505-71.505C327.505,135.355,295.429,103.278,256,103.278z"/> </g> </g><g> <g> <path d="M256,0C158.107,0,78.465,79.642,78.465,177.535c0,40.042,28.089,106.034,83.486,196.143 c40.502,65.88,81.577,121.48,81.987,122.033L256,512l12.062-16.289c0.41-0.553,41.485-56.153,81.987-122.033 c55.397-90.109,83.486-156.101,83.486-196.143C433.535,79.642,353.893,0,256,0z M256,276.306 c-55.98,0-101.522-45.543-101.522-101.522c0-55.98,45.543-101.522,101.522-101.522s101.522,45.543,101.522,101.522 C357.522,230.763,311.98,276.306,256,276.306z"/> </g> </g></symbol></svg>